<?xml version="1.0" encoding="utf-8"?>
<!-- Generator: Adobe Illustrator 25.0.1, SVG Export Plug-In . SVG Version: 6.00 Build 0)  -->
<svg version="1.0" id="katman_1" xmlns="http://www.w3.org/2000/svg" xmlns:xlink="http://www.w3.org/1999/xlink" x="0px" y="0px"
	 viewBox="0 0 383.2 277.4" style="enable-background:new 0 0 383.2 277.4;" xml:space="preserve">
<style type="text/css">
	.st0{fill-rule:evenodd;clip-rule:evenodd;}
	.st1{fill-rule:evenodd;clip-rule:evenodd;fill:#06700D;}
	.st2{fill-rule:evenodd;clip-rule:evenodd;fill:#FFFFFF;}
	.st3{fill-rule:evenodd;clip-rule:evenodd;fill:#2929FC;}
	.st4{fill-rule:evenodd;clip-rule:evenodd;fill:#FFBE00;}
	.st5{fill:none;stroke:#2929FC;stroke-width:0.216;stroke-miterlimit:10;}
</style>
<g id="surface1">
	<path class="st0" d="M191.7,32.4C250.4,32.4,298,80,298,138.7S250.4,245,191.7,245S85.4,197.4,85.4,138.7S133,32.4,191.7,32.4z"/>
	<path class="st1" d="M191.7,38.4c55.4,0,100.3,44.9,100.3,100.3S247.1,239,191.7,239S91.4,194.1,91.4,138.7S136.3,38.4,191.7,38.4z
		"/>
	<path class="st2" d="M105.4,179.3l8.9,0.3l4.2-2.4l1.6,2.8l-4.1,2.3l-4.5,7.9l-1.8-3.2l2.9-4.7l-5.5,0.1L105.4,179.3z M112.4,163.3
		l3.4,8.4l-11.6,4.6l-3.4-8.4l2.2-0.9l2.2,5.4l2-0.8l-2-5l2.2-0.9l2,5l2.9-1.1l-2.2-5.4L112.4,163.3z M110.9,155.7
		c0,0.1,0.1,0.3,0.1,0.4c0,0.1,0.1,0.3,0.1,0.4c0.2,1,0.3,1.9,0.4,2.7c0,0.8-0.1,1.5-0.2,2.3l-2.9,0.7l-0.1-0.3
		c0.4-0.8,0.6-1.6,0.7-2.4c0.1-0.9,0.1-1.7-0.1-2.4c0-0.2-0.1-0.4-0.2-0.7c-0.1-0.3-0.2-0.5-0.3-0.7c-0.2-0.2-0.3-0.4-0.5-0.5
		c-0.2-0.1-0.4-0.2-0.7-0.1c-0.3,0.1-0.5,0.2-0.6,0.5c-0.1,0.3-0.2,0.6-0.2,1.1c0,0.5,0,1,0,1.5s0,1,0,1.5c-0.1,1.1-0.4,1.9-0.8,2.5
		c-0.5,0.6-1.1,1-2,1.2c-1.1,0.3-2.2,0-3.1-0.9c-0.9-0.8-1.6-2.1-2-3.7c-0.2-0.8-0.3-1.6-0.3-2.4c0-0.8,0-1.5,0.1-2.2l2.8-0.6
		l0.1,0.3c-0.3,0.6-0.5,1.3-0.6,2c-0.1,0.8-0.1,1.5,0.1,2.3c0.1,0.3,0.1,0.5,0.2,0.8c0.1,0.2,0.2,0.5,0.4,0.7
		c0.1,0.2,0.3,0.3,0.5,0.5c0.2,0.1,0.4,0.1,0.6,0.1c0.3-0.1,0.5-0.2,0.7-0.5c0.1-0.3,0.2-0.8,0.1-1.5c0-0.5,0-0.9,0-1.4
		c0-0.4,0-0.9,0.1-1.4c0.1-1,0.4-1.8,0.8-2.3c0.4-0.6,1.1-0.9,1.9-1.1c0.8-0.2,1.6-0.1,2.4,0.3c0.7,0.4,1.4,1,1.9,1.9
		c0.1,0,0.3-0.1,0.4-0.1c0.2-0.1,0.3-0.1,0.4-0.1c0.9-0.2,1.6-0.1,2.2,0.3s1,1.1,1.2,1.9c0,0.2,0.1,0.5,0.1,0.8
		c0.1,0.4,0.1,0.7,0.1,0.9l-1.6,0.4l0-0.2c0-0.1,0-0.3,0.1-0.6s0-0.5-0.1-0.7c-0.1-0.4-0.3-0.7-0.6-0.9c-0.3-0.2-0.6-0.2-1-0.1
		L110.9,155.7z M109,141.9l0.6,7.3l-2.2,0.2l-0.2-2l-8,0.6l0.2,2l-2.2,0.2l-0.6-7.3l2.2-0.2l0.2,2l8-0.6l-0.2-2L109,141.9z
		 M95.3,145l0.2,3.1l-2.3,0.2l-0.2-3.1L95.3,145z M109.1,130.3l-0.1,9l-12.5-0.2l0-3.2l10,0.1l0.1-5.8L109.1,130.3z M116,104.5
		l-1.1,3l-7.9-2.7l4.4,3.9l-0.7,2.1l-5.9,0.4l7.9,2.7l-1,2.9l-11.8-4.1l1.2-3.5l6.8-0.6l-5-4.7l1.2-3.6L116,104.5z M123.3,91.7
		l-1.6,2.9l-2.6-0.5l-2.3,4l1.8,2l-1.6,2.8l-8.5-10.2l1.8-3.2L123.3,91.7z M116.7,93.7l-4.6-0.9l3.1,3.5L116.7,93.7z M122.1,79.5
		c-0.2-0.2-0.5-0.3-0.7-0.4c-0.3,0-0.5,0-0.8,0.2c-0.2,0.1-0.4,0.3-0.6,0.5c-0.2,0.2-0.4,0.5-0.6,0.8l-0.7,0.9l2.6,2.1l0.6-0.8
		c0.3-0.4,0.6-0.7,0.7-1c0.2-0.3,0.3-0.6,0.3-0.9c0-0.3,0-0.5-0.1-0.7C122.6,79.9,122.4,79.7,122.1,79.5z M132,81l-2.5,3.1l-5.7-0.2
		l-0.9,1.1l3.6,2.9l-2,2.5l-9.7-7.8l3.4-4.2c0.5-0.6,0.9-1,1.3-1.4c0.4-0.4,0.9-0.6,1.4-0.8c0.5-0.2,1-0.3,1.5-0.2
		c0.5,0.1,1,0.3,1.6,0.7c0.7,0.6,1.2,1.2,1.4,1.9c0.2,0.7,0.2,1.5,0,2.3L132,81z M143,71.5l-2.4,2.1l-5.4-6.3l1.8,5.6l-1.7,1.4
		l-5.3-2.6l5.4,6.3l-2.3,2l-8.1-9.5l2.8-2.4l6.2,2.9l-2-6.6l2.9-2.4L143,71.5z M155.7,64.1l-2.9,1.6l-2-1.8l-4,2.2l0.5,2.6l-2.8,1.6
		l-2.1-13.1l3.2-1.8L155.7,64.1z M149.1,62.3l-3.5-3.1l0.8,4.6L149.1,62.3z M160.6,52.7c-0.1-0.3-0.3-0.5-0.5-0.7
		c-0.2-0.2-0.5-0.2-0.8-0.2c-0.2,0-0.5,0-0.8,0.1c-0.3,0.1-0.6,0.2-0.9,0.4l-1.1,0.4l1.3,3.1l0.9-0.4c0.5-0.2,0.8-0.4,1.1-0.5
		c0.3-0.2,0.5-0.4,0.7-0.6c0.1-0.2,0.2-0.5,0.2-0.7S160.7,53,160.6,52.7z M168.5,58.8l-3.6,1.5l-4.9-3l-1.3,0.6l1.7,4.2l-3,1.2
		l-4.7-11.5l5-2c0.7-0.3,1.3-0.5,1.8-0.6c0.5-0.1,1-0.1,1.6-0.1c0.5,0.1,1,0.3,1.4,0.6c0.4,0.3,0.8,0.8,1,1.4
		c0.3,0.9,0.4,1.6,0.3,2.3c-0.2,0.7-0.6,1.4-1.1,2L168.5,58.8z M176.6,57.3l-7.1,1.6l-0.5-2.2l2-0.5l-1.8-7.8l-2,0.5l-0.5-2.2
		l7.1-1.6l0.5,2.2l-2,0.5l1.8,7.8l2-0.5L176.6,57.3z M171.4,44.3l-3,0.7l-0.5-2.2l3-0.7L171.4,44.3z M188.8,52.1
		c0.1,1.2-0.4,2.3-1.3,3.1c-1,0.8-2.4,1.3-4.1,1.5c-1,0.1-1.9,0.1-2.7-0.1s-1.5-0.3-2.2-0.5l-0.2-3l0.4,0c0.7,0.5,1.5,0.8,2.3,1
		c0.8,0.2,1.6,0.3,2.4,0.2c0.2,0,0.4-0.1,0.8-0.1c0.3-0.1,0.6-0.1,0.8-0.2c0.2-0.1,0.4-0.3,0.6-0.4c0.1-0.2,0.2-0.4,0.2-0.7
		c0-0.3-0.1-0.5-0.4-0.7c-0.2-0.2-0.6-0.3-1.1-0.4c-0.5-0.1-1-0.1-1.5-0.2c-0.5-0.1-1-0.1-1.5-0.3c-1.1-0.3-1.9-0.7-2.4-1.2
		s-0.8-1.2-0.9-2.1c-0.1-1.2,0.4-2.1,1.3-2.9s2.3-1.3,3.9-1.4c0.8-0.1,1.6,0,2.4,0.1c0.8,0.1,1.5,0.2,2.1,0.4l0.2,2.9l-0.3,0
		c-0.5-0.4-1.2-0.6-1.9-0.9c-0.7-0.2-1.5-0.3-2.3-0.2c-0.3,0-0.5,0.1-0.8,0.1c-0.3,0.1-0.5,0.1-0.8,0.3c-0.2,0.1-0.4,0.2-0.5,0.4
		c-0.1,0.2-0.2,0.4-0.2,0.6c0,0.3,0.2,0.6,0.4,0.7c0.3,0.2,0.8,0.3,1.5,0.4c0.5,0.1,0.9,0.1,1.3,0.2c0.4,0.1,0.9,0.1,1.4,0.3
		c1,0.2,1.7,0.6,2.2,1.1C188.4,50.6,188.7,51.2,188.8,52.1z M236.1,64.3c-0.6,1.1-1.5,1.7-2.8,1.9s-2.7-0.1-4.3-0.9
		c-0.9-0.5-1.7-1-2.3-1.5c-0.6-0.5-1.1-1.1-1.6-1.6l1.4-2.6l0.3,0.2c0.3,0.8,0.8,1.5,1.4,2.1s1.2,1.1,1.9,1.5
		c0.2,0.1,0.4,0.2,0.7,0.3c0.3,0.1,0.6,0.2,0.8,0.2c0.3,0,0.5,0,0.7-0.1s0.4-0.2,0.5-0.5c0.1-0.2,0.1-0.5,0-0.8
		c-0.1-0.3-0.3-0.6-0.7-0.9c-0.4-0.3-0.8-0.6-1.2-1c-0.4-0.3-0.8-0.7-1.1-1c-0.8-0.8-1.2-1.5-1.4-2.3s0-1.5,0.4-2.2
		c0.5-1,1.4-1.6,2.7-1.8c1.3-0.2,2.6,0.1,4.1,0.9c0.7,0.4,1.4,0.8,2,1.3c0.6,0.5,1.2,1,1.6,1.5l-1.3,2.5l-0.3-0.2
		c-0.3-0.6-0.6-1.2-1.2-1.7c-0.5-0.6-1.1-1-1.8-1.4c-0.2-0.1-0.5-0.2-0.7-0.3c-0.3-0.1-0.5-0.1-0.8-0.2c-0.2,0-0.5,0-0.7,0.1
		c-0.2,0.1-0.4,0.2-0.5,0.4c-0.2,0.3-0.2,0.6,0,0.8c0.1,0.3,0.5,0.6,1,1.1c0.4,0.3,0.7,0.6,1,0.9c0.3,0.3,0.7,0.6,1,1
		c0.7,0.7,1.1,1.4,1.3,2.1C236.6,62.8,236.5,63.5,236.1,64.3z M249.5,67.9c-0.3,0.5-0.7,0.8-1.2,1.2c-0.5,0.3-1,0.5-1.5,0.6
		c-0.7,0.1-1.4,0.1-2-0.1c-0.6-0.1-1.3-0.5-2.1-1l-1.6-1.2l-2.3,3.3l-2.6-1.9l7.2-10.2l4.3,3.1c0.6,0.5,1.2,0.9,1.5,1.3
		c0.4,0.4,0.6,0.9,0.8,1.3c0.2,0.6,0.3,1.1,0.2,1.7C250.2,66.7,249.9,67.3,249.5,67.9z M246.7,66c0.2-0.3,0.3-0.6,0.3-0.9
		c0-0.3-0.1-0.6-0.2-0.8c-0.2-0.3-0.4-0.6-0.7-0.7c-0.2-0.2-0.6-0.4-1-0.7l-0.4-0.3l-2.1,3l0.7,0.5c0.4,0.3,0.8,0.5,1.2,0.7
		s0.6,0.2,1,0.2c0.3,0,0.5-0.1,0.7-0.3C246.3,66.5,246.5,66.3,246.7,66z M259.3,80.7c-1.4,1.4-3,2.1-4.6,2.1c-1.6,0-3.1-0.7-4.5-2.2
		c-1.4-1.4-2.1-3-2-4.6s0.8-3.1,2.2-4.5c1.4-1.4,3-2.1,4.6-2.1s3.1,0.7,4.5,2.2c1.4,1.4,2.1,3,2,4.6
		C261.4,77.8,260.7,79.3,259.3,80.7z M254,79.9c0.5,0,1-0.2,1.4-0.4c0.5-0.3,1-0.6,1.5-1.1c0.5-0.5,0.9-1,1.2-1.5
		c0.3-0.5,0.4-0.9,0.4-1.4c0-0.4,0-0.8-0.2-1.2s-0.4-0.7-0.6-1c-0.3-0.3-0.6-0.5-1-0.7c-0.4-0.2-0.8-0.2-1.2-0.2
		c-0.4,0-0.9,0.2-1.4,0.4c-0.5,0.3-1,0.6-1.6,1.1c-0.5,0.5-0.9,1-1.2,1.5c-0.3,0.5-0.4,0.9-0.5,1.4c0,0.4,0,0.8,0.2,1.2
		c0.1,0.4,0.4,0.7,0.7,1c0.3,0.3,0.6,0.5,1,0.7C253.2,79.8,253.6,79.9,254,79.9z M267.4,87.7c0.2-0.2,0.4-0.4,0.5-0.6
		c0.1-0.2,0.1-0.5,0.1-0.8c-0.1-0.2-0.1-0.5-0.3-0.7c-0.1-0.2-0.3-0.5-0.6-0.8l-0.7-0.9l-2.7,1.9l0.6,0.8c0.3,0.4,0.6,0.7,0.8,1
		c0.2,0.3,0.5,0.4,0.8,0.5c0.3,0.1,0.5,0.1,0.7,0.1C266.9,88,267.1,87.9,267.4,87.7z M263.2,96.8l-2.3-3.2l1.8-5.4l-0.8-1.2
		l-3.8,2.6l-1.8-2.6l10.2-7.1l3.1,4.4c0.4,0.6,0.8,1.1,1,1.6c0.2,0.5,0.4,1,0.4,1.5c0,0.5,0,1.1-0.2,1.5c-0.2,0.5-0.6,0.9-1.1,1.3
		c-0.8,0.5-1.5,0.8-2.2,0.8c-0.7,0-1.5-0.2-2.2-0.7L263.2,96.8z M272.4,119.8l-1.2-3.8l3.6-5l-1.1-0.4l-3.9,1.2l-1-3.1l11.9-3.8
		l1,3.1l-5.4,1.7l6.7,2.5l1.1,3.6l-7-2.9L272.4,119.8z M278.7,131.5c-1.5,0.2-2.8-0.1-3.7-0.9c-0.9-0.8-1.5-2.1-1.8-3.9
		c-0.2-1.8,0-3.2,0.7-4.3c0.7-1,1.8-1.7,3.3-1.9l7.9-1.1l0.4,3.2l-7.7,1.1c-0.9,0.1-1.5,0.4-1.8,0.8s-0.5,1-0.4,1.8
		c0.1,0.8,0.4,1.3,0.8,1.7c0.4,0.3,1.1,0.4,2,0.3l7.7-1.1l0.4,3.2L278.7,131.5z M274.3,144.1l0.1-9l12.5,0.2l0,3.2l-10-0.1l-0.1,5.8
		L274.3,144.1z M276.9,157.6c-1.5-0.3-2.6-0.9-3.3-2s-0.8-2.5-0.5-4.3c0.3-1.8,0.9-3.1,1.9-3.9c1-0.8,2.2-1.1,3.7-0.8l7.8,1.3
		l-0.5,3.2l-7.7-1.3c-0.9-0.1-1.5-0.1-2,0.2c-0.5,0.3-0.8,0.8-0.9,1.6c-0.1,0.8,0,1.4,0.3,1.8c0.3,0.4,1,0.7,1.8,0.9l7.7,1.3
		l-0.5,3.2L276.9,157.6z M286.5,157.1l0.4-2.4l2.2,0.4l-0.4,2.4L286.5,157.1z M287.2,152.7l0.4-2.4l2.2,0.4l-0.4,2.4L287.2,152.7z
		 M272,171.2c-0.6-0.2-1-0.5-1.4-0.9c-0.4-0.4-0.6-0.8-0.8-1.3c-0.2-0.6-0.3-1.2-0.2-1.8c0-0.6,0.2-1.3,0.5-2.2l1.8-5.2l11.8,4
		l-1.6,4.6c-0.3,1-0.6,1.6-0.8,2.1c-0.2,0.4-0.5,0.8-0.9,1.2c-0.4,0.4-0.8,0.6-1.3,0.7c-0.5,0.1-0.9,0.1-1.4-0.1
		c-0.6-0.2-1-0.5-1.4-1c-0.3-0.4-0.5-1-0.6-1.6l-0.1,0c-0.4,0.7-0.9,1.2-1.6,1.5C273.5,171.4,272.8,171.4,272,171.2z M278.2,168.9
		c0.2,0.1,0.4,0.1,0.6,0.1s0.4-0.2,0.6-0.4c0.2-0.2,0.3-0.4,0.4-0.8c0.1-0.3,0.3-0.8,0.5-1.4l0.1-0.3l-2.5-0.8l-0.2,0.5
		c-0.2,0.5-0.3,0.9-0.4,1.2c-0.1,0.3-0.1,0.6-0.1,0.8c0,0.3,0.1,0.5,0.3,0.7C277.7,168.7,277.9,168.8,278.2,168.9z M273.1,168
		c0.4,0.1,0.7,0.2,0.9,0.1c0.2-0.1,0.5-0.3,0.7-0.6c0.1-0.2,0.3-0.5,0.4-0.9c0.1-0.4,0.3-0.8,0.4-1.3l0.2-0.7l-3-1l-0.1,0.2
		c-0.3,0.8-0.5,1.5-0.6,1.8s-0.2,0.7-0.1,1.1c0,0.4,0.1,0.6,0.3,0.8C272.6,167.8,272.9,167.9,273.1,168z M266.4,183.9
		c-1.4-0.7-2.2-1.7-2.5-2.9c-0.3-1.2,0-2.6,0.8-4.2c0.9-1.6,1.9-2.6,3-3.1c1.2-0.4,2.4-0.3,3.8,0.4l7,3.7l-1.5,2.9l-6.9-3.6
		c-0.8-0.4-1.4-0.5-2-0.4c-0.5,0.1-1,0.5-1.4,1.3c-0.4,0.7-0.5,1.3-0.3,1.8c0.2,0.5,0.7,1,1.5,1.4l6.9,3.6l-1.5,2.9L266.4,183.9z
		 M275.6,186.4l1.1-2.2l2,1.1l-1.1,2.2L275.6,186.4z M277.7,182.4l1.1-2.2l2,1.1l-1.1,2.2L277.7,182.4z"/>
	<path class="st3" d="M260.7,148.8c-4.9,33.7-33.9,59.7-69,59.7s-64.1-25.9-69-59.7H260.7z"/>
	<path class="st2" d="M122.3,131.2h138.8c0.3,2.5,0.4,5,0.4,7.5c0,3.4-0.3,6.8-0.7,10.1H122.7c-0.5-3.3-0.7-6.7-0.7-10.1
		C121.9,136.2,122.1,133.7,122.3,131.2z"/>
	<path class="st0" d="M161.3,132.6l1.9,5.2l6.1,0l-4.9,3.2l1.9,5.2l-4.9-3.2l-4.9,3.2l1.9-5.2l-4.9-3.2l6.1,0L161.3,132.6z"/>
	<path class="st4" d="M191.7,68.9c36,0,65.6,27.3,69.4,62.3H122.3C126.1,96.2,155.7,68.9,191.7,68.9z"/>
	<path class="st2" d="M117.9,163.7c0,0,1.8,1.2,3,0.9c0,0,2.1-0.9,4,0.5c0,0,1.5,5.2,3.3,7.6c-1.1,0.1-1.5-0.5-3-0.3
		c-1.2,0.2-3.5,0.4-4.4-1c0,0-2.7-5.8,0,0C118.2,165.6,117.9,163.7,117.9,163.7z"/>
	<path class="st2" d="M171.9,217.2c0,0,1-3.1,5.3-6c0,0-0.3-4.5,1.6-6.1c0,0-4.1-1.7-10.6,5.5c0,0-1.6,2.7,2.7,6l0.5,0.4
		L171.9,217.2z"/>
	<path class="st2" d="M181.5,205.2c0,0-2.9,0.9-2.7,5.6c0,0,6.5,0.1,7.8,1.2c0,0,2.9-0.2,4.8-2.5c0,0-0.3-2.4-4.5-3.7
		C184.9,205.1,183.6,205.2,181.5,205.2z"/>
	<path class="st2" d="M177.9,211.7l-3.5,3.5c0,0-3,0.8,7.4,3h1.8c0,0,0.9-2.8,2-4.5l0.5-1.1c0,0-6.2-0.1-7.8-1.1l-0.1-0.1
		L177.9,211.7z"/>
	<path class="st2" d="M185.7,214.5c0,0-0.2,3.1-0.4,3.4c0,0,7.1,2,13-5.1c0,0-2.9-3.8-3.2-5.5c0,0-2.1,1.9-3.3,2.9
		c0,0-2.9,2.6-5.8,2.3l-0.3,1.5L185.7,214.5z"/>
	<path class="st2" d="M195.8,207c0,0,11-7.2,15.8,0.7c0,0-4.4,1.2-5.9,2.2c0,0-4.4,0.3-6.2,2.5c0,0-2.4-2-3.5-4.1l-0.3-0.9
		L195.8,207z"/>
	<path class="st2" d="M204.9,211.3c0,0,7.7-4.1,10.3-4.5c0,0,1.5-0.5,0.4,0.7c0,0-1,2.5-0.9,5.7c0,0-6.3,3.9-11.3,4.6
		c0,0,1.2-3.4,1.3-5.4l-0.1-0.7L204.9,211.3z"/>
	<path class="st2" d="M194.1,217.5c0,0,3.3-2.3,4.6-4c0,0,3.9-1.2,5-1.5c0,0,0.9,2.2-1.7,6.4c0,0-4.8,0.1-7.5-0.4l-0.5-0.2
		L194.1,217.5z"/>
	<path class="st2" d="M167.2,213.3c0,0,2.4,4.4,4.7,5.2c0,0,1.2,4.6,3.8,6.6c0,0,0.1,1.1-5.5,1.7l-6.1,0.1c0,0,0.1-5.1-3.6-6.6
		c0,0,4.1-1,5.6-0.8c0,0-0.3-2.7,0.8-5.4l0.3-1L167.2,213.3z"/>
	<path class="st2" d="M157.3,221l0.7,6.3l4.1-0.2c0,0,2.8-4.6-4.1-6.4l-0.8,0.1L157.3,221z"/>
	<path class="st2" d="M151.7,220.7c0,0,3.9-0.1,4.9,0.7c0,0,0.7,4.1,0.6,5.7c0,0-3.5-0.1-4.9,1l-0.7-0.2L151.7,220.7z"/>
	<path class="st2" d="M169.5,227.8c0,0,5.6,0.3,6.9-2.1c0,0,3.2,1,4.4,0.4c0,0,2,2.7-2.6,6.2c0,0-2.5,1.3-8.1-3.6l-1-0.8
		L169.5,227.8z"/>
	<path class="st2" d="M181.9,225.7c-0.3,0.5,2,2.9-1.8,6.3c0,0-2.2,1.1,4.6,0.5c0,0,4.7-1.9,5.9-3.8c0,0-0.5-1.4-7.8-2.9l-0.9-0.3
		L181.9,225.7z"/>
	<path class="st2" d="M173.1,219.5c0,0,1.8,3.9,2.9,4.6c0,0,4.1-0.4,5.3,0.5c0,0,3.4-2.5,4.3-4.2c0,0-1.5-2.5-11.4-1.4l-1.3,0.1
		L173.1,219.5z"/>
	<path class="st2" d="M187.7,221.1l-5,3.6c0,0,7.7,1.6,10.7,4.9c0,0,2-0.5,4.4-3.6c0,0,1.1-2.1-6.4-4.4l-3.3-0.8L187.7,221.1z"/>
	<path class="st2" d="M193.4,221.4c0,0,5.4-5,14.2-0.7c0,0,1.5,1.1,1.6-3.7c0,0,3.7-2.3,6-2.9c0,0,2.7,3.3-0.9,9.8
		c0,0-1.1,2.8,2.1,6.4c0,0-10.7,1.1-11.3-5.8c0,0-2.5,1.4-5.9,0.5c0,0-3-2.5-5.8-3.2l-0.2-0.1L193.4,221.4z"/>
	<path class="st2" d="M204.2,226c0,0,1.1,2.3,3.4,3.8c0,0-4.2,5.9-13.1,0.8c0,0,4.2-3.1,4.4-4.7l4.9-0.2L204.2,226z"/>
	<path class="st2" d="M215.4,223.8c0,0-1.3,5.7,4.1,6.5l0.1-6.3L215.4,223.8z"/>
	<path class="st2" d="M220.3,223.8l1.8,0.2l-0.4,5.9h-1.6L220.3,223.8z"/>
	<path class="st2" d="M222.6,224.1l3.5,0c0,0-0.8,5.4-0.9,7.1c0,0-2.5,0.1-3-1.3l0.3-5.2L222.6,224.1z"/>
	<path class="st2" d="M121.8,172.9c0,0,1.9,1,3.1,0.5c0,0,2-1.1,4,0.1c0,0,2.1,5,4.1,7.2c-1.1,0.2-1.5-0.4-3,0.1
		c-1.2,0.4-3.4,0.8-4.5-0.6c0,0-3.3-5.5,0,0C122.2,174.8,121.8,172.9,121.8,172.9z"/>
	<path class="st2" d="M126.8,181.8c0,0,2,0.7,3.2,0.1c0,0,1.9-1.2,4-0.4c0,0,2.7,4.5,5,6.4c-1,0.4-1.6-0.2-3,0.4
		c-1.1,0.5-3.3,1.1-4.5,0c0,0-4-4.8,0,0C127.5,183.5,126.8,181.8,126.8,181.8z"/>
	<path class="st2" d="M132.6,189.9c0,0,2.1,0.4,3.2-0.3c0,0,1.7-1.5,4-0.9c0,0,3.3,4.2,5.9,5.7c-1,0.5-1.6,0-3,0.8
		c-1.1,0.6-3.2,1.6-4.6,0.6c0,0-4.7-4.3,0,0C133.5,191.5,132.6,189.9,132.6,189.9z"/>
	<path class="st2" d="M139.8,197.3c0,0,2.2,0.1,3.1-0.7c0,0,1.5-1.7,3.8-1.4c0,0,3.9,3.7,6.6,4.9c-0.9,0.6-1.6,0.2-2.8,1.2
		c-1,0.8-2.9,2-4.4,1.2c0,0-5.2-3.6,0,0C141,198.8,139.8,197.3,139.8,197.3z"/>
	<path class="st2" d="M148,203.3c0,0,2.2-0.1,3.1-1c0,0,1.3-1.9,3.7-1.8c0,0,4.2,3.3,7.1,4.2c-0.8,0.7-1.6,0.4-2.7,1.5
		c-0.9,0.9-2.7,2.3-4.3,1.6c0,0-5.5-3.1,0,0C149.3,204.7,148,203.3,148,203.3z"/>
	<path class="st2" d="M156.8,208.8c0,0,2.1-0.4,2.8-1.5c0,0,1-2.1,3.3-2.4c0,0,4.7,2.5,7.7,2.9c-0.7,0.8-1.5,0.7-2.4,1.9
		c-0.7,1-2.3,2.7-4,2.3c0,0-6-2.1,0,0C158.3,209.9,156.8,208.8,156.8,208.8z"/>
	<path class="st2" d="M113.9,133.4c0,0,1.2,1.8,2.5,1.9c0,0,2.3,0,3.5,2c0,0-0.6,5.4,0.1,8.3c-1-0.3-1.2-1.1-2.7-1.4
		c-1.2-0.2-3.4-0.9-3.7-2.6c0,0-0.3-6.4,0,0C113.4,135.3,113.9,133.4,113.9,133.4z"/>
	<path class="st2" d="M113.9,143.6c0,0,1.4,1.6,2.7,1.7c0,0,2.3-0.2,3.6,1.7c0,0-0.1,5.4,0.9,8.2c-1.1-0.2-1.3-1-2.8-1.1
		c-1.2-0.1-3.5-0.6-3.9-2.3c0,0-0.8-6.3,0,0C113.6,145.5,113.9,143.6,113.9,143.6z"/>
	<path class="st2" d="M115.1,153.8c0,0,1.6,1.4,2.9,1.3c0,0,2.2-0.5,3.8,1.1c0,0,0.6,5.2,2,7.7c-1.1,0-1.4-0.7-2.9-0.7
		c-1.2,0-3.5-0.1-4.2-1.7c0,0-1.7-5.9,0,0C115,155.6,115.1,153.8,115.1,153.8z"/>
	<path class="st2" d="M121.8,104c0,0,0.5,2.1,1.6,2.7c0,0,2.1,0.8,2.5,3.1c0,0-2.5,4.8-2.8,7.8c-0.9-0.6-0.7-1.4-2-2.2
		c-1-0.7-2.9-2.1-2.5-3.7c0,0,2-6.1,0,0C120.6,105.6,121.8,104,121.8,104z"/>
	<path class="st2" d="M117.7,113.2c0,0,0.8,2,2,2.5c0,0,2.2,0.5,2.9,2.7c0,0-1.9,5.1-1.8,8.1c-0.9-0.5-0.9-1.3-2.3-1.9
		c-1.1-0.5-3.1-1.7-3-3.4c0,0,1.2-6.3,0,0C116.8,114.9,117.7,113.2,117.7,113.2z"/>
	<path class="st2" d="M115.1,123.3c0,0,1.1,1.9,2.3,2.1c0,0,2.3,0.2,3.3,2.3c0,0-1.1,5.3-0.6,8.3c-1-0.4-1.1-1.2-2.5-1.6
		c-1.2-0.3-3.3-1.2-3.4-2.9c0,0,0.3-6.4,0,0C114.4,125.1,115.1,123.3,115.1,123.3z"/>
	<path class="st2" d="M187.2,60.8c0,0-1.6,1.4-1.6,2.7c0,0,0.3,2.3-1.5,3.7c0,0-5.5,0.1-8.3,1.3c0.1-1.1,0.9-1.3,1-2.8
		c0.1-1.2,0.5-3.5,2.1-4c0,0,6.3-1.1,0,0C185.2,60.6,187.2,60.8,187.2,60.8z"/>
	<path class="st2" d="M197.4,61c0,0-1.8,1.2-1.9,2.5c0,0,0,2.3-2,3.4c0,0-5.4-0.6-8.4,0.2c0.3-1,1.1-1.2,1.4-2.6
		c0.2-1.2,0.9-3.4,2.6-3.6c0,0,6.4-0.3,0,0C195.5,60.6,197.4,61,197.4,61z"/>
	<path class="st2" d="M207.4,62c0,0-1.9,1-2.1,2.3c0,0-0.2,2.3-2.2,3.2c0,0-5.5-1.1-8.5-0.6c0.3-1,1.2-1.1,1.6-2.5
		c0.3-1.2,1.2-3.3,2.9-3.4c0,0,6.5,0.3,0,0C205.5,61.3,207.4,62,207.4,62z"/>
	<path class="st2" d="M177.2,62.3c0,0-1.4,1.6-1.3,2.9c0,0,0.5,2.2-1.1,3.8c0,0-5.4,0.7-8.1,2.1c0-1.1,0.8-1.4,0.7-2.9
		c0-1.2,0.1-3.5,1.7-4.2c0,0,6.2-1.8,0,0C175.2,62.2,177.2,62.3,177.2,62.3z"/>
	<path class="st2" d="M166.9,64.6c0,0-1.1,1.8-0.7,3.1c0,0,1,2.1-0.4,4c0,0-5.2,1.7-7.5,3.6c-0.2-1.1,0.5-1.5,0.1-3
		c-0.3-1.2-0.6-3.4,0.8-4.4c0,0,5.7-2.9,0,0C164.9,65,166.9,64.6,166.9,64.6z"/>
	<path class="st2" d="M157.6,68.5c0,0-0.9,1.9-0.4,3.1c0,0,1.2,1.9,0.1,4c0,0-4.9,2.3-7,4.5c-0.3-1,0.3-1.5-0.2-3
		c-0.4-1.1-1-3.4,0.3-4.5c0,0,5.3-3.6,0,0C155.8,69,157.6,68.5,157.6,68.5z"/>
	<path class="st2" d="M148.7,74c0,0-0.7,2,0,3.1c0,0,1.4,1.8,0.5,3.9c0,0-4.7,2.8-6.5,5.2c-0.4-1,0.1-1.6-0.5-2.9
		c-0.5-1.1-1.3-3.2-0.2-4.5c0,0,4.9-4.1,0,0C146.9,74.7,148.7,74,148.7,74z"/>
	<path class="st2" d="M140.5,80c0,0-0.4,2.1,0.4,3.1c0,0,1.6,1.6,1,3.9c0,0-4.3,3.4-5.8,5.9c-0.5-0.9-0.1-1.6-0.9-2.8
		c-0.7-1-1.7-3.1-0.7-4.4c0,0,4.4-4.7,0,0C138.9,81,140.5,80,140.5,80z"/>
	<path class="st2" d="M133.4,87.2c0,0-0.1,2.1,0.8,3c0,0,1.8,1.4,1.5,3.7c0,0-3.8,3.9-5,6.6c-0.7-0.9-0.3-1.6-1.3-2.7
		c-0.8-0.9-2.1-2.8-1.3-4.3c0,0,3.7-5.2,0,0C131.8,88.4,133.4,87.2,133.4,87.2z"/>
	<path class="st2" d="M127.2,95.2c0,0,0.1,2.1,1.1,2.9c0,0,2,1.2,1.9,3.5c0,0-3.3,4.3-4.2,7.2c-0.8-0.8-0.5-1.5-1.6-2.5
		c-0.9-0.8-2.4-2.5-1.8-4.1c0,0,3.1-5.6,0,0C125.8,96.6,127.2,95.2,127.2,95.2z"/>
	<path class="st2" d="M217.4,64.5c0,0-2,0.8-2.3,2c0,0-0.4,2.2-2.6,3c0,0-5.3-1.6-8.4-1.5c0.4-1,1.3-0.9,1.8-2.3
		c0.4-1.1,1.5-3.1,3.2-3.1c0,0,6.5,1,0,0C215.6,63.7,217.4,64.5,217.4,64.5z"/>
	<path class="st2" d="M227,68.5c0,0-2.1,0.5-2.6,1.7c0,0-0.7,2.2-3,2.6c0,0-5-2.4-8.1-2.7c0.6-0.9,1.4-0.7,2.1-2.1
		c0.6-1.1,1.9-2.9,3.6-2.6c0,0,6.2,1.9,0,0C225.3,67.4,227,68.5,227,68.5z"/>
	<path class="st2" d="M235.9,73.9c0,0-2.1,0.2-2.9,1.2c0,0-1.1,2-3.4,2.1c0,0-4.6-3.2-7.5-3.9c0.7-0.8,1.5-0.5,2.4-1.7
		c0.8-0.9,2.4-2.5,4-2c0,0,5.8,2.9,0,0C234.4,72.5,235.9,73.9,235.9,73.9z"/>
	<path class="st2" d="M243.9,79.8c0,0-2.1,0-3,1c0,0-1.2,1.9-3.6,1.8c0,0-4.2-3.6-7.1-4.6c0.8-0.7,1.5-0.4,2.6-1.4
		c0.9-0.9,2.6-2.3,4.2-1.6c0,0,5.5,3.4,0,0C242.6,78.4,243.9,79.8,243.9,79.8z"/>
	<path class="st2" d="M251.1,87.5c0,0-2.1-0.4-3.1,0.4c0,0-1.6,1.7-3.8,1.1c0,0-3.5-4.3-6.2-5.8c0.9-0.6,1.6-0.1,2.8-1
		c1-0.7,3-1.8,4.4-0.8c0,0,4.9,4.3,0,0C250,85.8,251.1,87.5,251.1,87.5z"/>
	<path class="st2" d="M257.3,95.3c0,0-2.1-0.6-3.1,0.1c0,0-1.7,1.5-3.9,0.7c0,0-3.1-4.6-5.5-6.4c1-0.5,1.6,0.1,2.9-0.7
		c1.1-0.6,3.2-1.5,4.5-0.3c0,0,4.4,4.8,0,0C256.5,93.6,257.3,95.3,257.3,95.3z"/>
	<path class="st2" d="M262.5,104.2c0,0-2-0.8-3.1-0.2c0,0-1.9,1.3-4,0.3c0,0-2.5-4.9-4.8-7c1-0.4,1.6,0.2,3-0.4
		c1.1-0.5,3.3-1.2,4.5,0.1c0,0,3.8,5.3,0,0C261.9,102.3,262.5,104.2,262.5,104.2z"/>
	<path class="st2" d="M266.5,114c0,0-1.8-1.1-3-0.7c0,0-2.1,1-4-0.4c0,0-1.7-5.3-3.6-7.6c1.1-0.2,1.5,0.5,3,0.1
		c1.2-0.3,3.4-0.6,4.4,0.8c0,0,2.9,5.8,0,0C266.2,112,266.5,114,266.5,114z"/>
	<path class="st2" d="M269.4,123.8c0,0-1.7-1.3-2.9-1.1c0,0-2.2,0.7-3.9-0.8c0,0-1.1-5.4-2.7-8c1.1-0.1,1.4,0.6,2.9,0.4
		c1.2-0.2,3.5-0.2,4.3,1.3c0,0,2.2,6.1,0,0C269.2,121.8,269.4,123.8,269.4,123.8z"/>
	<path class="st2" d="M270.1,134.4c0,0-1.4-1.6-2.7-1.6c0,0-2.3,0.3-3.7-1.5c0,0-0.1-5.5-1.2-8.3c1.1,0.1,1.3,0.9,2.8,1
		c1.2,0.1,3.5,0.4,3.9,2.1c0,0,1,6.4,0,0C270.4,132.4,270.1,134.4,270.1,134.4z"/>
	<path class="st2" d="M270,144.1c0,0-1.3-1.7-2.6-1.8c0,0-2.3,0.2-3.5-1.8c0,0,0.4-5.5-0.5-8.4c1,0.2,1.2,1,2.7,1.2
		c1.2,0.2,3.4,0.7,3.8,2.4c0,0,0.5,6.5,0,0C270.4,142.2,270,144.1,270,144.1z"/>
	<path class="st2" d="M269.2,154.2c0,0-1.1-1.8-2.4-2c0,0-2.3-0.1-3.3-2.1c0,0,0.9-5.4,0.4-8.4c1,0.3,1.1,1.1,2.6,1.5
		c1.2,0.3,3.3,1,3.5,2.8c0,0-0.1,6.5,0,0C269.8,152.3,269.2,154.2,269.2,154.2z"/>
	<path class="st2" d="M266.5,164c0,0-0.9-1.9-2.1-2.3c0,0-2.3-0.3-3.1-2.5c0,0,1.6-5.3,1.4-8.3c1,0.4,1,1.2,2.4,1.8
		c1.1,0.4,3.2,1.4,3.1,3.1c0,0-0.9,6.4,0,0C267.3,162.2,266.5,164,266.5,164z"/>
	<path class="st2" d="M262.2,173.7c0,0-0.5-2.1-1.6-2.6c0,0-2.2-0.7-2.6-3c0,0,2.5-4.9,2.9-7.9c0.9,0.6,0.7,1.4,2,2.2
		c1,0.6,2.9,2,2.5,3.7c0,0-2.1,6.1,0,0C263.3,172,262.2,173.7,262.2,173.7z"/>
	<path class="st2" d="M257.1,182.3c0,0-0.3-2.1-1.3-2.8c0,0-2.1-1-2.2-3.3c0,0,3.1-4.6,3.8-7.6c0.8,0.7,0.6,1.5,1.8,2.4
		c1,0.7,2.6,2.3,2.1,3.9c0,0-2.8,5.9,0,0C258.4,180.8,257.1,182.3,257.1,182.3z"/>
	<path class="st2" d="M250.4,190.5c0,0,0.1-2.1-0.8-3c0,0-1.9-1.3-1.6-3.6c0,0,3.8-4.1,5-6.8c0.7,0.8,0.3,1.5,1.3,2.6
		c0.8,0.9,2.2,2.7,1.4,4.2c0,0-3.7,5.3,0,0C252,189.2,250.4,190.5,250.4,190.5z"/>
	<path class="st2" d="M243.1,197.9c0,0,0.4-2.1-0.4-3.1c0,0-1.7-1.5-1.1-3.8c0,0,4.3-3.5,5.9-6.1c0.6,0.9,0.1,1.6,1,2.8
		c0.7,1,1.8,2.9,0.8,4.3c0,0-4.4,4.8,0,0C244.8,196.9,243.1,197.9,243.1,197.9z"/>
	<path class="st2" d="M235.3,204c0,0,0.6-2-0.1-3.1c0,0-1.5-1.7-0.7-3.8c0,0,4.7-3.1,6.5-5.5c0.5,0.9-0.1,1.6,0.7,2.8
		c0.6,1,1.5,3.1,0.4,4.4c0,0-4.9,4.4,0,0C237.1,203.1,235.3,204,235.3,204z"/>
	<path class="st2" d="M226.3,209.2c0,0,0.9-1.9,0.3-3.1c0,0-1.3-1.9-0.2-3.9c0,0,5.1-2.4,7.2-4.6c0.3,1-0.3,1.5,0.3,2.9
		c0.4,1.1,1.1,3.3-0.3,4.4c0,0-5.4,3.6,0,0C228.2,208.6,226.3,209.2,226.3,209.2z"/>
	<path class="st2" d="M217,206.4c0,0,5.6-2,7.4-3.5c0,0,1,3.9,0.2,6.7c0,0-6.2,2.8-9,3.8c0,0,1.1-5,1.1-6.2v-0.6L217,206.4z"/>
	<path class="st2" d="M197,44.5c0,0-0.5,45.9-3.2,60.9c0,0-0.8,12.9-4.2,19.9c0,0-9.5,26-7.3,50c0,0-10.7,14.6-68.7,23.1
		c0,0,16.2,10.1,48.4,3.8c0,0,3.6-3.6,15.4-1c0,0,42.4-2.2,56.5-20.9c0,0,4.2-8.6,16.9-8.9c0,0,1.7-2.2-2.9-3.8c0,0-6.9-1.4-8.8-0.9
		c0,0,2.8-6.7-18.1-3.9c0,0-3.7-12.9,0.3-28.2c0,0,2.5-9.6,8.6-18.9c0,0,3.6-7.7-1.9-28.5c-3.3-12.3-5.7-16.6-13.5-27.1
		c-2.6-3.5-5.6-7.1-8.8-10.1c-2.7-2.5-5.8-4.9-8.7-7.3L197,44.5z"/>
	<path class="st0" d="M218.4,132.6l1.9,5.2l6.1,0l-4.9,3.2l1.9,5.2l-4.9-3.2l-4.9,3.2l1.9-5.2l-4.9-3.2l6.1,0L218.4,132.6z"/>
	<path class="st0" d="M249.4,132.6l1.9,5.2l6.1,0l-4.9,3.2l1.9,5.2l-4.9-3.2l-4.9,3.2l1.9-5.2l-4.9-3.2l6.1,0L249.4,132.6z"/>
	<path class="st0" d="M189.5,132.6l1.9,5.2l6.1,0l-4.9,3.2l1.9,5.2l-4.9-3.2l-4.9,3.2l1.9-5.2l-4.9-3.2l6.1,0L189.5,132.6z"/>
	<path class="st0" d="M132.8,132.6l1.9,5.2l6.1,0l-4.9,3.2l1.9,5.2l-4.9-3.2l-4.9,3.2l1.9-5.2l-4.9-3.2l6.1,0L132.8,132.6z"/>
	<path class="st3" d="M233.6,166.2c0.6-0.1,1.2,0.2,1.2,0.6c0.1,0.4-0.4,0.8-1,0.9c-0.6,0.1-1.2-0.2-1.2-0.6
		C232.5,166.7,233,166.3,233.6,166.2z"/>
	<path class="st5" d="M231.2,167.1c0,0,1.5-1.2,4.7-1"/>
</g>
</svg>
