<svg id="logosandtypes_com" xmlns="http://www.w3.org/2000/svg" viewBox="0 0 150 150"><style>.st1{fill:#f07d00}</style><path d="M0 0h150v150H0V0z" fill="none" id="Layer_3"/><g id="Alpetour"><path class="st1" d="M88.1 14.4L77.3 58.7c-.8-.2-1.6-.3-2.5-.4l3.8-45.4c3.3.3 6.4.8 9.5 1.5zM102.6 19.8L80.7 59.9c-.5-.3-1-.5-1.6-.7L94 16.1c3 1 5.8 2.2 8.6 3.7zM69.1 58.9c-.7.2-1.4.4-2 .7L48.4 17.9c2.8-1.2 5.8-2.3 8.8-3.1l11.9 44.1zM73 12.7v45.5c-.7 0-1.4.1-2.1.2l-7.6-44.9c3.1-.5 6.3-.8 9.7-.8zM132.1 53.2L88.6 68.7c-.3-.7-.6-1.4-.9-2l41.1-20.9c1.3 2.3 2.4 4.8 3.3 7.4zM125.4 40L86.9 65.3c-.5-.7-1-1.4-1.6-2L119.8 33c2 2.2 3.9 4.6 5.6 7zM115.3 28.5L84.1 62.1c-.6-.5-1.2-1-1.9-1.4l26-37.7c2.5 1.7 4.8 3.5 7.1 5.5zM135.5 68.1l-46 4.5c-.1-.9-.2-1.7-.4-2.6l45-10.6c.6 2.9 1.1 5.7 1.4 8.7zM59.5 81.7L20 105.2c-2.4-3.9-4.3-8.1-5.7-12.5l44-14c.3 1.1.7 2 1.2 3zM57.8 76.5l-45.5 8c-.6-3.4-.9-6.9-.9-10.5v-.2l46.1.2c0 .9.1 1.7.3 2.5zM65.4 87.6l-24.5 38.6c-5.5-3.3-10.4-7.4-14.5-12.2l35.1-29.7c1.1 1.3 2.4 2.4 3.9 3.3zM62.2 62.9c-.5.5-1 1.1-1.5 1.7L23.9 37c2-2.6 4.2-5.1 6.6-7.3l31.7 33.2zM65.4 60.4c-.8.5-1.6 1-2.3 1.6L34.9 25.9c2.5-1.9 5.1-3.7 7.8-5.2l22.7 39.7zM59.6 66.3c-.3.6-.7 1.2-.9 1.9L15.9 50.9c1.3-3.1 2.8-6 4.5-8.8l39.2 24.2zM58.1 69.9c-.2.7-.3 1.5-.4 2.2l-45.8-6.5c.4-3 1.1-5.9 1.9-8.8l44.3 13.1zM149.7 134.5l-13-59.3S95 74.7 89.6 74c-.7 3.9-2 8.4-5.1 11.5-2.1 1.9-4.6 3.3-7.5 3.9-1 .2-2.2.3-3.4.4-1.5 0-2.9-.2-4.2-.6l-12.2 43.9c5.2 1.4 10.8 2.2 16.5 2.2h2.2l14-60.4 12.9 59.6h46.9z"/></g></svg>