<?xml version="1.0" encoding="utf-8"?>
<!-- Generator: Adobe Illustrator 26.0.3, SVG Export Plug-In . SVG Version: 6.00 Build 0)  -->
<svg version="1.0" id="katman_1" xmlns="http://www.w3.org/2000/svg" xmlns:xlink="http://www.w3.org/1999/xlink" x="0px" y="0px"
	 viewBox="0 0 600 450" style="enable-background:new 0 0 600 450;" xml:space="preserve">
<style type="text/css">
	.st0{fill:#16995D;}
	.st1{fill:#FFFFFF;}
</style>
<g transform="matrix(0.37384,0,0,0.378153,-10.9681,-11.4645)">
	<path class="st0" d="M1415.4,626.3c0,122.9-147.7,222.5-329.9,222.5c-182.2,0-329.9-99.6-329.9-222.5s147.7-222.5,329.9-222.5
		C1267.7,403.8,1415.4,503.4,1415.4,626.3z"/>
	<path class="st0" d="M908.7,626.3c0,122.9-147.7,222.5-329.9,222.5s-329.9-99.6-329.9-222.5s147.7-222.5,329.9-222.5
		S908.7,503.4,908.7,626.3z"/>
	<path class="st1" d="M416.6,601.1c-19.6-5.3-31.5-9.2-31.5-19.3c0-8.4,8.3-13.8,21.3-13.8c12.9,0,25.9,4.9,36.7,13.7l0.3,0.2
		l1.3-24.7l0-0.1l-0.1-0.1c-10.3-5.7-20.7-9.5-37.6-9.5c-12.3,0-23.4,3.1-31.4,8.9c-8.8,6.3-13.4,15.3-13.4,26
		c0,21.2,17.7,30.3,32.5,34.1c19.8,5.3,33.8,10,33.8,22.3c0,10.4-9.2,16.8-23.9,16.8c-14.8,0-29.9-6.4-41.3-17.5l-0.3-0.3l-2.4,26.3
		l0,0.1l0.1,0.1c11.8,8,26.6,12.2,43,12.2c13.8,0,25.6-3.4,34.2-9.8c9.2-6.9,14.1-17,14.1-29.2C451.8,619.1,440.3,607.1,416.6,601.1
		z"/>
	<path class="st1" d="M539.5,626.3c0-18.4-11.1-30.6-26.9-30.6c-9.5,0-18.6,4.2-25.1,13.8v34.8c6.6,8.4,15.5,12.6,25.3,12.6
		C528.4,656.9,539.5,644.7,539.5,626.3z M562.3,626.3c0,33-21.3,50.3-46.3,50.3c-12,0-21.5-4.4-28.6-10.6v38.5h-22.6V577.9h22.6
		v10.6c7.5-7.3,17.7-12.4,30.2-12.4C542.1,576.1,562.3,593.4,562.3,626.3z"/>
	<path class="st1" d="M646.4,615.4c0-11.8-7.5-20.9-21.3-20.9c-13.1,0-24.4,8.9-27.3,23.7h48.2C646.2,617.2,646.4,616.5,646.4,615.4
		z M665.7,633.6h-68.3c2.6,15.1,13.7,23.3,29,23.3c13.1,0,22.4-3.1,32.8-9.1l1.3,19.8c-9.1,5.1-20.8,8.9-35.7,8.9
		c-27.7,0-50.4-17.3-50.4-49.9c0-30.2,22.9-50.6,50.3-50.6c28.4,0,43.2,17.1,43.2,42.1C667.7,623.2,667.2,628.1,665.7,633.6z"/>
	<path class="st1" d="M773.7,666.4l2.4-21.9c9.1,7.8,21.8,12.4,35.1,12.4c9.5,0,16-4,16-10.7c0-18-52.1-8.7-52.1-41.2
		c0-19.5,16.8-28.9,36.8-28.9c14,0,24.8,3.5,33,8.6l-1.1,20.2c-9.7-6.6-21.3-9.8-31.7-9.8c-8,0-14.6,3.1-14.6,9.3
		c0,15.1,52.3,7.8,52.3,41.1c0,20.6-18,31.1-39,31.1C795.4,676.6,782.8,672.6,773.7,666.4z"/>
	<path class="st1" d="M925.6,648.5V634c-8.2-2.5-15.8-4.2-23.9-4.2c-11.7,0-18.6,6-18.6,14.8c0,8.9,7.7,14.6,17.7,14.6
		C910.3,659.1,917.8,655.8,925.6,648.5z M948,614.7v60.1h-22.4v-9.8c-7.5,7.1-17.5,11.7-29.1,11.7c-21.7,0-35-13.1-35-31.3
		c0-19.5,15.1-31.3,37.7-31.3c8.6,0,16.8,1.5,26.4,4.4v-2.9c0-14.8-11.1-21.3-24.9-21.3c-10.4,0-22.2,3.8-30.6,10.6l-0.9-19.7
		c7.3-4.9,20.8-8.9,35.5-8.9C929.8,576.1,948,587.7,948,614.7z"/>
	<path class="st1" d="M950,577.9h24.5l27.8,61.2l27.6-61.2h24.5l-46,96.9H996L950,577.9z"/>
	<path class="st1" d="M1123.6,615.4c0-11.8-7.5-20.9-21.3-20.9c-13.1,0-24.4,8.9-27.3,23.7h48.3
		C1123.4,617.2,1123.6,616.5,1123.6,615.4z M1142.9,633.6h-68.3c2.6,15.1,13.7,23.3,28.9,23.3c13.1,0,22.4-3.1,32.8-9.1l1.3,19.8
		c-9.1,5.1-20.8,8.9-35.7,8.9c-27.7,0-50.4-17.3-50.4-49.9c0-30.2,22.9-50.6,50.3-50.6c28.4,0,43.2,17.1,43.2,42.1
		C1144.9,623.2,1144.3,628.1,1142.9,633.6z"/>
	<path class="st1" d="M1227.8,580.2l-3.1,20.8c-5.5-2.9-10.6-4-16.2-4c-10,0-19.1,5.1-25.7,15.7v62.1h-22.6v-96.9h22.6V591
		c6.4-8.9,15.7-14.9,28.4-14.9C1217.4,576.1,1222.7,577.5,1227.8,580.2z"/>
	<path class="st1" d="M1234.3,666.4l2.4-21.9c9.1,7.8,21.9,12.4,35.1,12.4c9.5,0,16-4,16-10.7c0-18-52.1-8.7-52.1-41.2
		c0-19.5,16.7-28.9,36.8-28.9c14,0,24.8,3.5,33,8.6l-1.1,20.2c-9.7-6.6-21.3-9.8-31.7-9.8c-8,0-14.6,3.1-14.6,9.3
		c0,15.1,52.3,7.8,52.3,41.1c0,20.6-18,31.1-39,31.1C1255.9,676.6,1243.4,672.6,1234.3,666.4z"/>
	<path class="st1" d="M757.2,648.2c-7.8,5.6-15.7,8.7-25,8.7c-15.7,0-29.3-10.9-29.3-30.6c0-19.7,13.7-30.6,29.3-30.6
		c9.3,0,17.2,3.1,25,8.5c1-6.8,2.5-13.4,4.3-20c-8.1-4.7-17.9-8.2-31.7-8.2c-27.7,0-50.1,18.8-50.1,50.3c0,31.5,22.4,50.3,50.1,50.3
		c13.9,0,23.6-3.9,31.6-8.8C759.6,661.3,758.2,654.8,757.2,648.2z"/>
</g>
</svg>
