<svg id="Layer_1" data-name="Layer 1" xmlns="http://www.w3.org/2000/svg" xmlns:xlink="http://www.w3.org/1999/xlink" viewBox="0 0 635.02 845.17"><defs><style>.cls-1{fill:none;}.cls-2{fill:#f28020;}.cls-3{fill:#fff;}.cls-4{fill:#fbfcfb;}.cls-5{fill:#ea8023;}.cls-6{fill:#1569af;}.cls-7{fill:#ea8123;}.cls-8{clip-path:url(#clip-path);}.cls-9{fill:url(#linear-gradient);}.cls-10{clip-path:url(#clip-path-2);}.cls-11{clip-path:url(#clip-path-3);}.cls-12{fill:url(#linear-gradient-2);}.cls-13{clip-path:url(#clip-path-5);}.cls-14{fill:url(#linear-gradient-3);}.cls-15{clip-path:url(#clip-path-7);}.cls-16{fill:url(#linear-gradient-4);}.cls-17{clip-path:url(#clip-path-9);}.cls-18{fill:url(#linear-gradient-5);}.cls-19{fill:url(#linear-gradient-8);}.cls-20{fill:url(#linear-gradient-9);}</style><clipPath id="clip-path" transform="translate(-208.15 -105.83)"><path class="cls-1" d="M305.51,146.08h0c-3.1,0-6,2.47-7.23,3.75-.68.71-46.68,47.24-47.18,47.81a9.67,9.67,0,0,0-2.45,6.72l-.16,34.28c0-1.35.33-7.22,10.86-10.82,2-.69,6.32-2.17,11.58-4,8.83-3.06,20.42-7.11,29.08-10.09,10-3.52,13.07-7,16.48-16.48,1.53-4.19,5.27-14.76,6.92-19.43-1.13-3.25-2.22-6.41-3.21-9.28-1.83-5.26-3.32-9.55-4-11.6-3.41-10.05-8.9-10.81-10.58-10.86Z"/></clipPath><linearGradient id="linear-gradient" x1="-27.44" y1="1013.36" x2="-21.42" y2="1013.36" gradientTransform="matrix(0, 8.91, 8.91, 0, -8745.4, 409.54)" gradientUnits="userSpaceOnUse"><stop offset="0" stop-color="#1f305e"/><stop offset="0.04" stop-color="#153c71"/><stop offset="0.1" stop-color="#0a4a89"/><stop offset="0.15" stop-color="#025297"/><stop offset="0.2" stop-color="#00559c"/><stop offset="0.32" stop-color="#095ea3"/><stop offset="0.51" stop-color="#2178b6"/><stop offset="0.76" stop-color="#48a1d5"/><stop offset="0.9" stop-color="#61bbe9"/><stop offset="1" stop-color="#61bbe9"/></linearGradient><clipPath id="clip-path-2" transform="translate(-208.15 -105.83)"><rect class="cls-1" x="-542" y="346" width="1080" height="1080"/></clipPath><clipPath id="clip-path-3" transform="translate(-208.15 -105.83)"><path class="cls-1" d="M316.15,156.94c.69,2.05,2.18,6.34,4,11.6,3,8.84,7.08,20.47,10.08,29.12,3.5,10,7,13.09,16.45,16.51,4.16,1.53,14.73,5.28,19.39,6.91l9.24-3.2c5.29-1.85,9.56-3.33,11.59-4,10.27-3.49,10.85-9.13,10.87-10.68,0-3.1-2.47-6-3.76-7.24s-46.55-46.21-47.71-47.23a9.66,9.66,0,0,0-6.73-2.46l-34.22-.16c1.34,0,7.22.32,10.79,10.86"/></clipPath><linearGradient id="linear-gradient-2" x1="23.8" y1="1101.47" x2="29.82" y2="1101.47" gradientTransform="matrix(0, -18.21, -18.21, 0, 20410.42, 667.78)" gradientUnits="userSpaceOnUse"><stop offset="0" stop-color="#cc4827"/><stop offset="0" stop-color="#cd4927"/><stop offset="0.11" stop-color="#db5626"/><stop offset="0.2" stop-color="#e05b26"/><stop offset="0.22" stop-color="#e16224"/><stop offset="0.37" stop-color="#e98a1b"/><stop offset="0.51" stop-color="#eeaa13"/><stop offset="0.65" stop-color="#f3c10d"/><stop offset="0.78" stop-color="#f5ce0a"/><stop offset="0.9" stop-color="#f6d309"/><stop offset="1" stop-color="#f6d309"/></linearGradient><clipPath id="clip-path-5" transform="translate(-208.15 -105.83)"><path class="cls-1" d="M386.91,213.85c-2,.7-6.3,2.18-11.59,4L346.26,228c-10,3.51-13.06,7-16.49,16.47-1.53,4.21-5.28,14.86-6.91,19.5.82,2.39,1.63,4.71,2.39,6.93.27.77.52,1.51.78,2.23s.48,1.41.72,2.08c1.52,4.39,2.72,7.87,3.32,9.64,3.28,9.64,8.45,10.74,10.35,10.87h.24c3.12,0,6.1-2.53,7.33-3.83s46.13-46.62,47.18-47.8a9.75,9.75,0,0,0,2.45-6.72l.16-34.19c0,1.48-.51,7.2-10.87,10.71m10.87-10.71v0Z"/></clipPath><linearGradient id="linear-gradient-3" x1="-24.17" y1="1104.23" x2="-18.15" y2="1104.23" gradientTransform="matrix(18.23, 0, 0, -18.23, 750.12, 20384.27)" xlink:href="#linear-gradient"/><clipPath id="clip-path-7" transform="translate(-208.15 -105.83)"><path class="cls-1" d="M305.51,146.08h0c-3.1,0-6,2.47-7.23,3.75-.68.71-46.68,47.24-47.18,47.81a9.67,9.67,0,0,0-2.45,6.72l-.16,34.27c0-1.35.34-7.22,10.86-10.81,2-.69,6.32-2.17,11.58-4,8.83-3.06,20.42-7.11,29.08-10.09,10-3.52,13.07-7,16.48-16.48,1.53-4.19,5.27-14.76,6.92-19.43-1.13-3.25-2.22-6.41-3.21-9.28-1.83-5.26-3.32-9.55-4-11.6-3.41-10.05-8.9-10.81-10.58-10.86Z"/></clipPath><linearGradient id="linear-gradient-4" x1="20.99" y1="1053.5" x2="27.01" y2="1053.5" gradientTransform="matrix(-18.22, 0, 0, 18.22, 719.34, -19006.32)" xlink:href="#linear-gradient"/><clipPath id="clip-path-9" transform="translate(-208.15 -105.83)"><path class="cls-1" d="M270.93,223.86l-11.59,4-1.19.42c-9.22,3.55-9.69,8.88-9.7,10.29,0,3.12,2.47,6.07,3.76,7.28s46.55,46.23,47.73,47.26a9.62,9.62,0,0,0,6.71,2.43l34.2.17c-1.34,0-7.19-.32-10.78-10.88-.69-2-2.16-6.3-4-11.59L316,244.1c-3.49-10-7-13.08-16.44-16.5-4.2-1.55-14.83-5.31-19.45-6.95-3.21,1.12-6.33,2.2-9.17,3.21"/></clipPath><linearGradient id="linear-gradient-5" x1="-26.98" y1="1056.27" x2="-20.96" y2="1056.27" gradientTransform="matrix(0, 18.21, 18.21, 0, -18942.33, 698.74)" xlink:href="#linear-gradient-2"/><linearGradient id="linear-gradient-8" x1="-24.17" y1="1104.23" x2="-18.15" y2="1104.23" gradientTransform="matrix(18.23, 0, 0, -18.23, 750.19, 20384.14)" xlink:href="#linear-gradient"/><linearGradient id="linear-gradient-9" x1="20.99" y1="1053.5" x2="27.01" y2="1053.5" gradientTransform="matrix(-18.22, 0, 0, 18.22, 719.32, -19006.35)" xlink:href="#linear-gradient"/></defs><title>Uganda Premier League Logo</title><path class="cls-2" d="M533.21,951s251.68-77.19,284-311.6L819,275.5s17.31-1.47,22.52-23.31c4.91-20.62-2.83-27.37-2.83-27.37s6.36-32.19-17.78-37.82-37,.22-42,3-15.21-6.5-26-6.3-20.35,6.3-20.35,6.3-8.73-9.41-27.25-8.24c-8.33.53-19.15,8.24-19.15,8.24s-1.42-2.48-10.19-3-19.81,0-19.81,0,3-22.59-15.84-22.17c-12.15.27-68.67,0-68.67,0s-11.68,4-12.95,18.89h-39S516.32,167.8,502,167.8s-23.21.42-23.21.42-9.73-8.06-22.43-7.21-29.64,1.27-41.5,18.66l-58.43-53S356.36,122,328.7,122c-15,0-36.18,0-41.91,4.67s-58.65,59.15-58.65,59.15-4.62,4.39-4.66,6.54c-.18,12.36.43-1.24,0,2.15s0,51.74,0,51.74-.18,8.19,3.82,10.79c1.65,1.07,21.55,19.74,21.55,19.74l0,354.91S242.54,824.64,533.21,951" transform="translate(-208.15 -105.83)"/><rect class="cls-3" x="69.85" y="69.17" width="89" height="93"/><path class="cls-4" d="M263.76,327.66H801.07V639.4S786.32,844,534.1,933.19c0,0-237.89-89.18-270.34-292.62Z" transform="translate(-208.15 -105.83)"/><path class="cls-5" d="M545.6,839.41l13.77-21s124-24.66,124-148.7c0,0,6.63-65.34-53-114.51h96.86l-12.57,13.36,25.91-13.36h36.21v47.71l-45.74,38.16,45.74-21s-5.72,49.63-13.34,63l-40,26.72,30.5-11.45S714.54,816.66,545.6,839.41" transform="translate(-208.15 -105.83)"/><path class="cls-5" d="M515.67,838.92l-13.77-21S389.59,800.06,380.28,670c0,0-1.9-65.6,55.35-117.3H338.77L351.35,566l-25.92-13.35H289.22v47.71L335,638.54l-45.73-21s5.72,49.62,13.34,63l40,26.72-30.49-11.45s70.2,129.27,203.58,143.13" transform="translate(-208.15 -105.83)"/><path class="cls-6" d="M532.59,816.11c-80.46,0-145.92-65.55-145.92-146.14s65.46-146.13,145.92-146.13S678.51,589.39,678.51,670,613.05,816.11,532.59,816.11m0-286.43c-77.24,0-140.09,62.94-140.09,140.29s62.85,140.3,140.09,140.3,140.1-62.94,140.1-140.3-62.85-140.29-140.1-140.29" transform="translate(-208.15 -105.83)"/><path class="cls-6" d="M531.84,797C461.89,797,405,740,405,670s56.91-127.06,126.86-127.06,126.87,57,126.87,127.06S601.8,797,531.84,797m0-248.27c-66.73,0-121,54.38-121,121.22s54.3,121.21,121,121.21,121-54.38,121-121.21-54.29-121.22-121-121.22" transform="translate(-208.15 -105.83)"/><path class="cls-6" d="M445.62,580.12l1.69,68.74L410.79,701l-15.24-17.69s-6.66-14.22,4.77-53.69c2.24-7.76,12.24-37.31,20.07-41,12-5.76,13.6-6.78,25.23-8.47" transform="translate(-208.15 -105.83)"/><path class="cls-6" d="M594.51,561.38l-65.45,20.79-60.21-20.59L481.58,542s11.78-10.38,52.82-10.39c8.07,0,39.19,1.37,45,7.87,8.88,10,10.29,11.2,15.15,21.9" transform="translate(-208.15 -105.83)"/><path class="cls-6" d="M653.58,699.7l-38.46-57,2.62-63.65,22.36,6.65s13.28,8.37,24.93,47.78c2.29,7.75,9.81,38,5.23,45.41-7,11.35-7.8,13.06-16.68,20.76" transform="translate(-208.15 -105.83)"/><path class="cls-6" d="M550.34,792.75,587.61,735l59.53-22.49,2.63,23.21s-2.49,15.52-34.14,41.68c-6.23,5.14-31.1,23.91-39.68,22.59-13.19-2-15.05-2.08-25.61-7.24" transform="translate(-208.15 -105.83)"/><path class="cls-6" d="M418.58,721.51l65.36,21.09L521,794.35l-21.7,8.56s-15.61,1.61-49-22.23c-6.57-4.69-31.12-23.88-32.07-32.52-1.45-13.28-1.89-15.1.35-26.65" transform="translate(-208.15 -105.83)"/><path class="cls-7" d="M534.68,862s-5,16.54-8.37,19.33c-4.65,3.87-19.17,7.93-19.17,7.93s15.58,5.23,17.69,7c3.24,2.67,6.75,8.31,9.53,20.56,0,0,4-13.31,7.44-18.36,4-6,20.06-8.9,20.06-8.9s-16.23-4.93-18.09-7.28C540.45,878,534.68,862,534.68,862" transform="translate(-208.15 -105.83)"/><path class="cls-7" d="M608.28,844s-2.85,9.35-4.74,10.92c-2.62,2.19-10.83,4.49-10.83,4.49s8.8,3,10,3.94c1.83,1.51,3.81,4.71,5.38,11.62,0,0,2.28-7.51,4.21-10.38,2.28-3.37,11.34-5,11.34-5s-9.17-2.78-10.22-4.11c-1.88-2.38-5.14-11.45-5.14-11.45" transform="translate(-208.15 -105.83)"/><path class="cls-7" d="M453.67,844s-2.85,9.35-4.74,10.92c-2.62,2.19-10.82,4.49-10.82,4.49s8.8,3,10,3.94c1.84,1.51,3.81,4.71,5.39,11.62,0,0,2.27-7.51,4.2-10.38,2.29-3.37,11.34-5,11.34-5s-9.17-2.78-10.22-4.11c-1.87-2.38-5.14-11.45-5.14-11.45" transform="translate(-208.15 -105.83)"/><path class="cls-6" d="M335.13,441.15c-17.51,0-31.83-11.85-31.83-30.33V356.09H324v54.26c0,7.82,4.26,12.32,11.13,12.32s11.35-4.5,11.35-12.32V356.09h20.7v54.73c0,18.48-14.55,30.33-32.05,30.33" transform="translate(-208.15 -105.83)"/><path class="cls-6" d="M436.5,431.67c-7.22,7.46-15.26,9.48-24.49,9.48-9.82,0-17.27-3.32-23.42-9.48-8.87-8.88-8.52-20.73-8.52-33.4s-.35-24.53,8.52-33.42c6.15-6.16,13.25-9.47,23.42-9.47,21.65,0,30.88,14.1,32.89,28H424.07c-1.65-6.4-5-9.48-12.06-9.48a10.12,10.12,0,0,0-8.16,3.67c-1.89,2.49-3.08,5.33-3.08,20.74s1.19,18.36,3.08,20.84a10.07,10.07,0,0,0,8.16,3.56c4.38,0,7.34-1.3,9.23-3.32,2.36-2.37,3.19-5.81,3.19-9v-1.18H412v-17.3h33v11.72c0,13.63-2.12,21.56-8.51,28.08" transform="translate(-208.15 -105.83)"/><path class="cls-6" d="M505.22,440.43l-3.9-12.55H475.41l-4.14,12.55H449.62l30.64-84.34h16l30.64,84.34Zm-16.44-52.35-7.57,22.51h14.67Z" transform="translate(-208.15 -105.83)"/><polygon class="cls-6" points="374.9 334.6 347.93 292.19 347.93 334.6 327.23 334.6 327.23 250.25 345.33 250.25 372.29 292.67 372.29 250.25 393 250.25 393 334.6 374.9 334.6"/><path class="cls-6" d="M672.13,432.14c-5.8,5.81-14,8.29-22.72,8.29H618.19V356.09h31.22c8.76,0,16.92,2.49,22.72,8.29,9.82,9.83,8.75,20.61,8.75,33.88s1.07,24.05-8.75,33.88m-14.2-52.83c-1.89-2.84-4.73-4.74-9.93-4.74h-9.11V422H648c5.2,0,8-1.89,9.93-4.73,1.66-2.37,2.25-4.62,2.25-19s-.59-16.58-2.25-18.95" transform="translate(-208.15 -105.83)"/><path class="cls-6" d="M741.08,440.43l-3.9-12.55h-25.9l-4.14,12.55H685.48l30.65-84.34h16l30.64,84.34Zm-16.44-52.35-7.57,22.51h14.67Z" transform="translate(-208.15 -105.83)"/><path class="cls-6" d="M303.84,492.21h-6.43v15.27H286.9V464.66h16.94c9.49,0,14.59,6.73,14.59,13.77s-5.1,13.78-14.59,13.78m-.48-18.11h-5.95v8.66h5.95a4.34,4.34,0,1,0,0-8.66" transform="translate(-208.15 -105.83)"/><path class="cls-6" d="M346.19,507.48l-7.57-15.94h-3.55v15.94H324.56V464.66H341.5c9.49,0,14.59,6.73,14.59,13.77a12.3,12.3,0,0,1-7,11.18l9.25,17.87ZM341,474.1h-5.95v8.66H341a4.34,4.34,0,1,0,0-8.66" transform="translate(-208.15 -105.83)"/><polygon class="cls-6" points="155.57 401.64 155.57 358.82 184.65 358.82 184.65 368.2 166.09 368.2 166.09 375.36 181.94 375.36 181.94 384.74 166.09 384.74 166.09 392.26 184.65 392.26 184.65 401.64 155.57 401.64"/><polygon class="cls-6" points="221.47 401.64 221.47 381.13 215.4 391.72 208.68 391.72 202.6 381.13 202.6 401.64 192.1 401.64 192.1 358.82 202.43 358.82 212.03 377.71 221.65 358.82 231.97 358.82 231.97 401.64 221.47 401.64"/><rect class="cls-6" x="240.63" y="358.82" width="10.51" height="42.82"/><polygon class="cls-6" points="259.79 401.64 259.79 358.82 288.86 358.82 288.86 368.2 270.31 368.2 270.31 375.36 286.16 375.36 286.16 384.74 270.31 384.74 270.31 392.26 288.86 392.26 288.86 401.64 259.79 401.64"/><path class="cls-6" d="M526.09,507.48l-7.57-15.94H515v15.94H504.47V464.66h16.94c9.48,0,14.59,6.73,14.59,13.77a12.3,12.3,0,0,1-7,11.18l9.25,17.87Zm-5.16-33.38H515v8.66h5.95a4.34,4.34,0,1,0,0-8.66" transform="translate(-208.15 -105.83)"/><polygon class="cls-6" points="348.81 401.64 348.81 358.82 359.33 358.82 359.33 392.26 377.28 392.26 377.28 401.64 348.81 401.64"/><polygon class="cls-6" points="383.41 401.64 383.41 358.82 412.48 358.82 412.48 368.2 393.93 368.2 393.93 375.36 409.78 375.36 409.78 384.74 393.93 384.74 393.93 392.26 412.48 392.26 412.48 401.64 383.41 401.64"/><path class="cls-6" d="M652,507.48l-2-6.38H636.86l-2.1,6.38h-11l15.56-42.82h8.1L663,507.48Zm-8.35-26.58-3.84,11.42h7.45Z" transform="translate(-208.15 -105.83)"/><path class="cls-6" d="M694,503c-3.66,3.79-7.75,4.81-12.43,4.81A15.92,15.92,0,0,1,669.66,503c-4.5-4.51-4.32-10.53-4.32-17s-.18-12.45,4.32-17a15.6,15.6,0,0,1,11.89-4.81c11,0,15.67,7.15,16.69,14.19H687.67c-.84-3.24-2.51-4.81-6.12-4.81a5.13,5.13,0,0,0-4.14,1.86c-1,1.26-1.56,2.71-1.56,10.53s.6,9.32,1.56,10.59a5.1,5.1,0,0,0,4.14,1.8,6.05,6.05,0,0,0,4.68-1.69,6.4,6.4,0,0,0,1.62-4.57v-.6h-6.3v-8.78H698.3v6c0,6.91-1.08,10.94-4.32,14.25" transform="translate(-208.15 -105.83)"/><path class="cls-6" d="M721,507.84c-8.88,0-16.15-6-16.15-15.4V464.66h10.51V492.2c0,4,2.16,6.26,5.64,6.26s5.77-2.29,5.77-6.26V464.66h10.51v27.78c0,9.38-7.39,15.4-16.28,15.4" transform="translate(-208.15 -105.83)"/><polygon class="cls-6" points="537.07 401.64 537.07 358.82 566.14 358.82 566.14 368.2 547.59 368.2 547.59 375.36 563.44 375.36 563.44 384.74 547.59 384.74 547.59 392.26 566.14 392.26 566.14 401.64 537.07 401.64"/><path class="cls-5" d="M499,817.18s20.93,8.51,26.54-7.83c6.32-18.42,6.29-31.09,0-58.13-2.17-9.34-14.37-34-16.1-43.75A156.09,156.09,0,0,1,507.7,685s-3.15,1-12.07,8.07c-4.86,3.84-6.32,5.18-6.32,5.18s-25.87-25.33-10.93-61,48.28-32.82,48.28-32.82v35.12a54.47,54.47,0,0,0,9.2-1.73l3.45-1.15s29.88-4.61,30.46,11.5-4,14.4-4,14.4l24.15,9.21-31,2.88s-7.25,3.45-8.51,9.2,11.39,21.3-13.33,21.3c0,0-5.17,3.41-2.87,7.75s18.85,47.83,16.2,76.87c-3,32.81-12.18,39.93-25.4,46.63s-40.89-3.74-40.89-3.74Z" transform="translate(-208.15 -105.83)"/><path class="cls-3" d="M515.67,650.48s-12.15,19.57,0,30.51,23.07,1.15,24.79-2.88S537,663.72,529,665.45s3.87-23-13.29-15" transform="translate(-208.15 -105.83)"/><path class="cls-3" d="M543.33,656.24s-7.47,0-6.89,2.3,3.44,5.76,6.89,5.76,6.9-10.36,0-8.06" transform="translate(-208.15 -105.83)"/><g class="cls-8"><rect class="cls-9" x="230.43" y="133.6" width="110.96" height="117.53" transform="translate(-265.91 61.24) rotate(-29.72)"/></g><g class="cls-10"><path class="cls-3" d="M253.11,238.63h-9.32v-.07l.16-34.22a14.24,14.24,0,0,1,3.63-9.8c.26-.31,3.92-4,36-36.47,6.18-6.26,11.08-11.21,11.34-11.49,1.13-1.19,5.32-5.17,10.59-5.17h.24c3.08.11,10.66,1.68,14.84,14,.69,2,2.17,6.31,4,11.58l3.73,10.82-1.3,3.69c-1.81,5.12-4.84,13.68-6.17,17.32-4,11.08-8.33,15.41-19.32,19.28l-23,8-9,3.13-8.69,3c-5.65,1.94-7.68,4.56-7.7,6.39m1.4-37.85a5,5,0,0,0-1.23,3.59l-.1,21a32.53,32.53,0,0,1,4.62-2c1.66-.56,4.76-1.62,8.66-3l9-3.13,23-8c8.8-3.09,10.7-5.54,13.62-13.64,1.33-3.63,4.35-12.15,6.15-17.25l.22-.62-2.67-7.72c-1.84-5.29-3.33-9.58-4-11.64-2.31-6.82-5.26-7.62-6.23-7.69-1.14.05-2.83,1.19-3.89,2.3l-11.43,11.58c-12.87,13-34.31,34.73-35.67,36.15" transform="translate(-208.15 -105.83)"/></g><g class="cls-11"><rect class="cls-12" x="295.88" y="124.76" width="111.37" height="117.63" transform="translate(-192.37 288.81) rotate(-59.73)"/></g><g class="cls-10"><path class="cls-3" d="M366.07,226l-1.55-.55c-4.28-1.5-15.13-5.35-19.43-6.93-11.09-4-15.42-8.35-19.26-19.35L323,190.84c-2.42-7-5.06-14.56-7.19-20.77-1.84-5.28-3.33-9.58-4-11.63-2.41-7.12-5.51-7.69-6.41-7.7l.05-9.33,34.24.16a14.36,14.36,0,0,1,9.77,3.61c.73.65,11.36,11.18,33.44,33.08,7.5,7.43,14,13.85,14.44,14.3,1.2,1.15,5.19,5.36,5.19,10.61-.06,3.18-1.54,10.86-14,15.11-2,.68-6.3,2.16-11.56,4-2.85,1-6,2.08-9.24,3.22ZM318.6,150.81a31.76,31.76,0,0,1,2,4.63c.69,2,2.17,6.31,4,11.58,2.13,6.21,4.77,13.8,7.18,20.76l2.89,8.36c3.07,8.79,5.52,10.7,13.63,13.64,3.84,1.4,12.9,4.62,17.82,6.36,2.7-.94,5.31-1.85,7.71-2.67,5.29-1.85,9.57-3.34,11.6-4,5.64-1.92,7.69-4.54,7.72-6.35,0-.85-1-2.55-2.31-3.79-.51-.48-5.59-5.52-14.55-14.4-12.72-12.62-31.94-31.69-33.09-32.75a5,5,0,0,0-3.61-1.24Z" transform="translate(-208.15 -105.83)"/></g><g class="cls-13"><rect class="cls-14" x="301.44" y="193.67" width="117.76" height="111.39" transform="translate(-244.85 328.99) rotate(-59.73)"/></g><g class="cls-10"><path class="cls-3" d="M340.45,300.35h-.34c-3-.2-10.35-2-14.45-14-.61-1.79-1.8-5.26-3.32-9.62l-1.49-4.29c-.76-2.23-1.57-4.56-2.4-7l-.53-1.54.54-1.55c1.74-4.94,5.43-15.38,6.93-19.52,4-11.13,8.36-15.45,19.33-19.29l29.07-10.09c5.3-1.85,9.58-3.34,11.62-4,5.66-1.92,7.7-4.55,7.71-6.38v0l9.32,0h0l-.16,34.25a14.43,14.43,0,0,1-3.59,9.77c-.65.72-10.12,10.31-31.12,31.54-8.08,8.17-15.71,15.89-16.2,16.4-1.16,1.23-5.39,5.29-10.68,5.29Zm-.23-9.33.2,4.66Zm-12.43-27.08c.64,1.86,1.27,3.67,1.87,5.4l1.49,4.28c1.53,4.42,2.73,7.91,3.33,9.7,2.23,6.54,5,7.55,6.08,7.69h.1c1,0,2.69-1.05,3.95-2.37.53-.55,6.25-6.35,16.34-16.55,12.57-12.7,29.78-30.11,30.77-31.18a5,5,0,0,0,1.23-3.6l.11-21a31.85,31.85,0,0,1-4.65,2c-2,.69-6.29,2.17-11.56,4l-29.06,10.09c-8.79,3.08-10.7,5.53-13.64,13.65-1.35,3.74-4.48,12.61-6.36,17.92" transform="translate(-208.15 -105.83)"/></g><g class="cls-15"><rect class="cls-16" x="227.06" y="136.68" width="117.7" height="111.36" transform="translate(-232.51 236.46) rotate(-59.73)"/></g><g class="cls-10"><path class="cls-3" d="M253.11,238.63h-9.32v-.07l.16-34.22a14.24,14.24,0,0,1,3.63-9.8c.26-.31,3.92-4,36-36.47,6.18-6.26,11.08-11.21,11.34-11.49,1.13-1.19,5.32-5.17,10.59-5.17h.24c3.08.11,10.66,1.68,14.84,14,.69,2,2.17,6.31,4,11.58l3.73,10.82-1.3,3.69c-1.81,5.12-4.84,13.68-6.17,17.32-4,11.08-8.33,15.41-19.32,19.28l-23,8-9,3.13-8.69,3c-5.65,1.94-7.68,4.56-7.7,6.39m1.4-37.85a5,5,0,0,0-1.23,3.59l-.1,21a32.53,32.53,0,0,1,4.62-2c1.66-.56,4.76-1.62,8.66-3l9-3.13,23-8c8.8-3.09,10.7-5.54,13.62-13.64,1.33-3.63,4.35-12.15,6.15-17.25l.22-.62-2.67-7.72c-1.84-5.29-3.33-9.58-4-11.64-2.31-6.82-5.26-7.62-6.23-7.69-1.14.05-2.83,1.19-3.89,2.3l-11.43,11.58c-12.87,13-34.31,34.73-35.67,36.15" transform="translate(-208.15 -105.83)"/></g><g class="cls-17"><rect class="cls-18" x="238.95" y="199.35" width="111.39" height="117.64" transform="translate(-285.02 276.64) rotate(-59.72)"/></g><g class="cls-10"><path class="cls-3" d="M340.83,300.36l-34.2-.16a14.4,14.4,0,0,1-9.77-3.59c-.73-.65-10.59-10.42-32.42-32.09-7.7-7.64-15-14.86-15.46-15.32-1.18-1.11-5.19-5.28-5.19-10.64,0-3,1.34-10.29,12.68-14.66l.13-.05c.4-.14.82-.29,1.26-.43l2.5-.87c2.28-.78,5.43-1.86,9.05-3.12l9.17-3.19,1.53-.53,1.54.54c2.42.86,14.78,5.23,19.5,7,11.09,4,15.42,8.36,19.24,19.35l1,2.95c2.84,8.22,6.34,18.31,9.06,26.18,1.84,5.3,3.32,9.58,4,11.63,1.93,5.66,4.56,7.7,6.39,7.7Zm-81.08-67.72c-4.86,1.89-6.63,4.32-6.64,6,0,1,1.18,2.78,2.28,3.81.57.54,6,5.94,15.61,15.47,12.33,12.24,31,30.72,32.07,31.75a5,5,0,0,0,3.6,1.22l21,.1a32.86,32.86,0,0,1-2-4.64c-.69-2.05-2.16-6.3-4-11.57-2.72-7.87-6.21-18-9.06-26.17l-1-3c-3.07-8.8-5.51-10.7-13.63-13.64-3.37-1.24-11.4-4.1-17.88-6.39l-7.61,2.65-9.07,3.14-2.54.87-1.11.38" transform="translate(-208.15 -105.83)"/><rect class="cls-3" x="78.23" y="75.95" width="76.91" height="77.02"/><path class="cls-3" d="M368,263.47H281.74V177.12H368Zm-76.92-9.34h67.59V186.45H291.05Z" transform="translate(-208.15 -105.83)"/></g><g class="cls-8"><rect class="cls-9" x="230.43" y="133.6" width="110.96" height="117.53" transform="translate(-265.91 61.24) rotate(-29.72)"/></g><g class="cls-11"><rect class="cls-12" x="295.88" y="124.76" width="111.37" height="117.63" transform="translate(-192.37 288.81) rotate(-59.73)"/></g><g class="cls-13"><rect class="cls-19" x="301.44" y="193.68" width="117.76" height="111.4" transform="translate(-244.85 328.99) rotate(-59.72)"/></g><g class="cls-15"><rect class="cls-20" x="227.06" y="136.68" width="117.7" height="111.36" transform="matrix(0.5, -0.86, 0.86, 0.5, -232.51, 236.46)"/></g><g class="cls-17"><rect class="cls-18" x="238.95" y="199.35" width="111.39" height="117.64" transform="translate(-285.02 276.64) rotate(-59.72)"/></g><polygon class="cls-3" points="407 90.95 406.71 151.31 396.02 151.25 396.31 90.9 373.39 90.78 373.43 81.16 429.89 81.43 429.85 91.06 407 90.95"/><polygon class="cls-3" points="419.3 151.37 419.53 101.33 429.66 101.38 429.41 151.42 419.3 151.37"/><path class="cls-3" d="M711.25,257.7l.15-30.61c0-7.81-2.14-11.22-9.28-11.26-5.44,0-11.16,3-11.16,3l-.18,38.73-10.1,0,.14-30.61c0-8.57-4.41-11.23-10-11.26-3.35,0-10.43,1.56-10.43,1.56l-.2,40.21-10.09-.05.24-46.85s13.36-3.92,23.29-3.87c5.18,0,9.41,1.75,12.49,5.16,0,0,10.47-5.05,18.91-5,12.81.07,16.56,8.64,16.52,18.81l-.16,32.11Z" transform="translate(-208.15 -105.83)"/><path class="cls-3" d="M799.56,258.75c-8.21-.05-15.13-1.46-21-7.34l6.67-6.6c4,4.19,9.49,5.31,14.43,5.33,6.12,0,11-2.14,11-6.9,0-3.38-1.86-5.56-6.71-6l-8-.73c-9.38-.84-14.82-5.12-14.78-14,0-9.81,8.49-15.33,19-15.28,7.5,0,13.93,1.65,18.58,5.74l-6.38,6.4c-3.15-2.68-7.6-3.69-12.36-3.72-6,0-9.12,2.64-9.13,6.41,0,3,1.57,5.26,6.91,5.8l7.9.71c9.44.85,14.93,5.33,14.89,14.27,0,10.51-9,15.9-21,15.85" transform="translate(-208.15 -105.83)"/><path class="cls-3" d="M455.65,257c-9.16-.05-18-2.89-24.71-9.7l7.11-6.93a24.93,24.93,0,0,0,17.84,7.09c7.26,0,13.84-2.83,14.91-10.12,1.31-8.77-4.62-9.44-18.8-14.15-9.71-3.22-19.13-7-18.54-18.15.62-12.28,9-19.33,23.52-19.26,8.33,0,16.31,2.66,21.66,8.07l-6.8,6.64c-4.3-4.13-9.78-5.43-15.2-5.46-8.24,0-12.64,3.61-13.11,9.77-.39,5.17,4.27,7.16,8.61,8.49.56.17,7.28,2.28,11.67,3.62,9.93,3,18.12,8.32,17.09,19.94-1.14,12.54-10.48,20.21-25.25,20.15" transform="translate(-208.15 -105.83)"/><path class="cls-3" d="M504.89,257.27c-9.24,0-13.79-6.83-13.74-14.09l.22-46.41,10.15-4.41-.08,15.33,9.74,0,0,7.76-9.73-.05-.13,27.29c0,3.68,1.3,5.88,5.53,5.9a24.25,24.25,0,0,0,5.27-.94l-1.14,8.66a24.64,24.64,0,0,1-6.05.92" transform="translate(-208.15 -105.83)"/><path class="cls-3" d="M536.66,257.45c-6.21,0-10.35-1.54-13.41-4.62a15.54,15.54,0,0,1-3.9-10.8c0-8.42,5.92-14.85,17.37-14.81l13.24.07,0-3.14c0-7.16-2.59-9.41-10.93-9.46-5.54,0-8.21,1.25-11,4.81l-6.6-6.28c4.8-5.51,9.73-7.16,18-7.11,13.76.06,20.64,5.92,20.59,17.3l-.15,29.89s-11.76,4.21-23.25,4.15M550,235l-11.64,0c-5.85,0-8.87,2.48-8.9,7s2.79,6.83,9,6.86a57.8,57.8,0,0,0,11.45-1.2Z" transform="translate(-208.15 -105.83)"/><path class="cls-3" d="M595.24,206.54c-.59,0-1.21-.06-1.87-.06-13.15-.07-21.86,3.75-21.86,3.75L571.28,257l10,0,.18-39.92a73.66,73.66,0,0,1,13.74-1.46Z" transform="translate(-208.15 -105.83)"/><path class="cls-3" d="M755.58,207.16c6.23,0,10.35,1.53,13.4,4.61a15.36,15.36,0,0,1,3.9,10.79c0,8.42-5.9,14.84-17.35,14.79l-13.23,0,0,3.12c0,7.17,2.59,9.41,10.92,9.46,5.53,0,8.21-1.26,11-4.8l6.59,6.26c-4.77,5.51-9.71,7.17-18,7.13-13.75-.07-20.63-5.93-20.58-17.31,0,0,0-8.93.09-16.79,0-9.37,4.81-17.3,23.3-17.21m-13.25,15.38c0,3.57,0,7,0,7l11.63.06c5.84,0,8.87-2.5,8.9-7s-2.8-6.83-9-6.87c-5.06,0-11.46,1.46-11.47,6.78" transform="translate(-208.15 -105.83)"/></svg>